<svg width="225" height="54" viewBox="0 0 225 54" fill="none" xmlns="http://www.w3.org/2000/svg">
<path d="M47.4919 27.1775C47.4919 40.5742 37.0662 51.4343 24.2054 51.4343C11.3447 51.4343 0.918945 40.5742 0.918945 27.1775C0.918945 13.7809 11.3447 2.92076 24.2054 2.92076C37.0662 2.92076 47.4919 13.7809 47.4919 27.1775Z" fill="#FC3DD2"/>
<path fill-rule="evenodd" clip-rule="evenodd" d="M40.3706 27.5076L15.9891 7.99017L13.9085 44.095L40.3706 27.5076ZM46.0013 30.5683C47.9557 29.3432 48.1164 26.5556 46.3156 25.1141L16.1019 0.927873C13.9778 -0.77245 10.82 0.634321 10.6634 3.35062L8.08502 48.0921C7.92848 50.8084 10.9038 52.5686 13.2092 51.1235L46.0013 30.5683Z" fill="white"/>
<path d="M63.0162 37.4592V17.4236H68.1705V20.9586H68.399C68.8053 19.7846 69.4824 18.8585 70.4303 18.1802C71.3782 17.5019 72.5123 17.1628 73.8326 17.1628C75.1698 17.1628 76.3082 17.5063 77.2476 18.1932C78.1871 18.8715 78.8134 19.7933 79.1265 20.9586H79.3297C79.7274 19.8107 80.4468 18.8933 81.4878 18.2063C82.5373 17.5106 83.7772 17.1628 85.2076 17.1628C87.0272 17.1628 88.5041 17.7584 89.6382 18.9498C90.7808 20.1324 91.3521 21.8108 91.3521 23.9848V37.4592H85.9566V25.0804C85.9566 23.9674 85.6688 23.1326 85.0933 22.576C84.5178 22.0195 83.7984 21.7412 82.9351 21.7412C81.9533 21.7412 81.1874 22.0629 80.6373 22.7064C80.0871 23.3413 79.8121 24.1804 79.8121 25.2239V37.4592H74.5689V24.9631C74.5689 23.9804 74.2939 23.1978 73.7437 22.6151C73.2021 22.0325 72.4869 21.7412 71.5982 21.7412C70.9973 21.7412 70.4557 21.8977 69.9732 22.2108C69.4993 22.5151 69.1227 22.9456 68.8434 23.5021C68.5641 24.05 68.4244 24.6935 68.4244 25.4326V37.4592H63.0162Z" fill="#FC3DD2"/>
<path d="M104.435 37.8505C102.463 37.8505 100.757 37.42 99.3183 36.5591C97.888 35.6895 96.7835 34.4808 96.0049 32.9329C95.2262 31.3763 94.8369 29.5719 94.8369 27.5197C94.8369 25.45 95.2262 23.6413 96.0049 22.0934C96.7835 20.5368 97.888 19.3281 99.3183 18.4672C100.757 17.5976 102.463 17.1628 104.435 17.1628C106.407 17.1628 108.108 17.5976 109.538 18.4672C110.977 19.3281 112.086 20.5368 112.864 22.0934C113.643 23.6413 114.032 25.45 114.032 27.5197C114.032 29.5719 113.643 31.3763 112.864 32.9329C112.086 34.4808 110.977 35.6895 109.538 36.5591C108.108 37.42 106.407 37.8505 104.435 37.8505ZM104.46 33.546C105.357 33.546 106.106 33.2851 106.707 32.7633C107.308 32.2329 107.761 31.5111 108.065 30.598C108.379 29.685 108.535 28.6458 108.535 27.4805C108.535 26.3153 108.379 25.2761 108.065 24.363C107.761 23.45 107.308 22.7282 106.707 22.1977C106.106 21.6673 105.357 21.4021 104.46 21.4021C103.554 21.4021 102.793 21.6673 102.175 22.1977C101.565 22.7282 101.104 23.45 100.791 24.363C100.486 25.2761 100.334 26.3153 100.334 27.4805C100.334 28.6458 100.486 29.685 100.791 30.598C101.104 31.5111 101.565 32.2329 102.175 32.7633C102.793 33.2851 103.554 33.546 104.46 33.546Z" fill="#FC3DD2"/>
<path d="M117.549 37.4592V17.4236H122.703V20.9586H122.932C123.338 19.7846 124.015 18.8585 124.963 18.1802C125.911 17.5019 127.045 17.1628 128.365 17.1628C129.702 17.1628 130.841 17.5063 131.78 18.1932C132.72 18.8715 133.346 19.7933 133.659 20.9586H133.862C134.26 19.8107 134.979 18.8933 136.02 18.2063C137.07 17.5106 138.31 17.1628 139.74 17.1628C141.56 17.1628 143.037 17.7584 144.171 18.9498C145.313 20.1324 145.885 21.8108 145.885 23.9848V37.4592H140.489V25.0804C140.489 23.9674 140.201 23.1326 139.626 22.576C139.05 22.0195 138.331 21.7412 137.468 21.7412C136.486 21.7412 135.72 22.0629 135.17 22.7064C134.62 23.3413 134.345 24.1804 134.345 25.2239V37.4592H129.101V24.9631C129.101 23.9804 128.826 23.1978 128.276 22.6151C127.735 22.0325 127.019 21.7412 126.131 21.7412C125.53 21.7412 124.988 21.8977 124.506 22.2108C124.032 22.5151 123.655 22.9456 123.376 23.5021C123.097 24.05 122.957 24.6935 122.957 25.4326V37.4592H117.549Z" fill="#FC3DD2"/>
<path d="M159.043 37.8505C157.037 37.8505 155.311 37.4331 153.864 36.5983C152.425 35.7548 151.316 34.5634 150.537 33.0242C149.759 31.4763 149.369 29.6458 149.369 27.5327C149.369 25.4718 149.759 23.663 150.537 22.1064C151.316 20.5498 152.412 19.3368 153.825 18.4672C155.247 17.5976 156.915 17.1628 158.827 17.1628C160.114 17.1628 161.311 17.3758 162.42 17.8019C163.537 18.2193 164.511 18.8498 165.34 19.6933C166.178 20.5368 166.83 21.5977 167.295 22.876C167.761 24.1456 167.993 25.6326 167.993 27.3371V28.8632H151.528V25.4196H162.903C162.903 24.6196 162.733 23.9108 162.395 23.2934C162.056 22.676 161.587 22.1934 160.986 21.8455C160.393 21.489 159.703 21.3107 158.916 21.3107C158.095 21.3107 157.367 21.5064 156.733 21.8977C156.106 22.2803 155.616 22.7978 155.26 23.45C154.905 24.0935 154.723 24.8109 154.714 25.6022V28.8762C154.714 29.8676 154.892 30.7241 155.247 31.4459C155.611 32.1677 156.123 32.7242 156.783 33.1155C157.444 33.5068 158.227 33.7025 159.132 33.7025C159.733 33.7025 160.283 33.6155 160.782 33.4416C161.282 33.2677 161.709 33.0068 162.065 32.659C162.42 32.3112 162.691 31.885 162.877 31.3807L167.879 31.7198C167.625 32.9547 167.105 34.033 166.318 34.9547C165.539 35.8678 164.532 36.5809 163.296 37.0939C162.069 37.5983 160.651 37.8505 159.043 37.8505Z" fill="#FC3DD2"/>
<path d="M176.931 25.8761V37.4592H171.523V17.4236H176.677V20.9586H176.905C177.337 19.7933 178.061 18.8715 179.076 18.1932C180.092 17.5063 181.323 17.1628 182.771 17.1628C184.125 17.1628 185.306 17.4671 186.313 18.0758C187.32 18.6846 188.103 19.5542 188.661 20.6846C189.22 21.8064 189.499 23.1456 189.499 24.7022V37.4592H184.091V25.6935C184.099 24.4674 183.795 23.5108 183.177 22.8238C182.559 22.1282 181.709 21.7803 180.625 21.7803C179.897 21.7803 179.254 21.9412 178.696 22.263C178.145 22.5847 177.714 23.0543 177.401 23.6717C177.096 24.2804 176.939 25.0152 176.931 25.8761Z" fill="#FC3DD2"/>
<path d="M204.134 17.4236V21.5977H192.391V17.4236H204.134ZM195.057 12.6235H200.465V31.3024C200.465 31.8155 200.541 32.2155 200.693 32.5025C200.846 32.7807 201.057 32.9764 201.328 33.0894C201.607 33.2025 201.929 33.259 202.293 33.259C202.547 33.259 202.801 33.2373 203.055 33.1938C203.308 33.1416 203.503 33.1025 203.639 33.0764L204.489 37.2113C204.218 37.2983 203.837 37.3983 203.347 37.5113C202.856 37.6331 202.259 37.707 201.557 37.7331C200.253 37.7853 199.111 37.607 198.129 37.1983C197.155 36.7896 196.398 36.1548 195.856 35.2939C195.315 34.433 195.048 33.346 195.057 32.0329V12.6235Z" fill="#FC3DD2"/>
<path d="M223.637 23.1369L218.686 23.45C218.601 23.0152 218.419 22.6238 218.14 22.276C217.86 21.9195 217.492 21.6368 217.035 21.4281C216.587 21.2107 216.049 21.102 215.423 21.102C214.585 21.102 213.878 21.2847 213.303 21.6499C212.727 22.0064 212.44 22.4847 212.44 23.0847C212.44 23.563 212.626 23.9674 212.998 24.2978C213.371 24.6283 214.01 24.8935 214.915 25.0935L218.444 25.824C220.34 26.224 221.754 26.8675 222.685 27.7545C223.616 28.6414 224.081 29.8067 224.081 31.2502C224.081 32.5633 223.704 33.7156 222.951 34.7069C222.206 35.6982 221.182 36.4722 219.879 37.0287C218.584 37.5766 217.09 37.8505 215.398 37.8505C212.816 37.8505 210.76 37.2983 209.228 36.1939C207.704 35.0808 206.811 33.5677 206.549 31.6546L211.868 31.3676C212.029 32.1764 212.418 32.7938 213.036 33.2199C213.654 33.6373 214.445 33.846 215.41 33.846C216.358 33.846 217.12 33.659 217.695 33.2851C218.279 32.9025 218.576 32.4112 218.584 31.8111C218.576 31.3068 218.368 30.8937 217.962 30.572C217.556 30.2415 216.929 29.9893 216.083 29.8154L212.706 29.1241C210.802 28.7328 209.384 28.0545 208.453 27.0892C207.531 26.124 207.069 24.8935 207.069 23.3978C207.069 22.1108 207.408 21.002 208.085 20.0716C208.771 19.1411 209.731 18.4237 210.967 17.9193C212.211 17.4149 213.667 17.1628 215.334 17.1628C217.797 17.1628 219.735 17.6976 221.148 18.7672C222.57 19.8368 223.4 21.2934 223.637 23.1369Z" fill="#FC3DD2"/>
</svg>
